<?xml version="1.0" encoding="UTF-8" standalone="no"?>
<svg
   xmlns="http://www.w3.org/2000/svg"
   width="56cm"
   height="60cm"
   viewBox="-2 -2 1113 1189">
  <polygon
     style="fill:#0000aa"
     points="420,251.147 555,173.205 690,251.147 690,441.673 840,528.275 840,164.545 555,-0.00119682 270,164.545 270,528.277 420,441.673 "
     id="n" />
  <polygon
     style="fill:#00aaaa"
     points="810,545.595 555,692.819 300,545.595 555,398.371 "
     id="diamond" />
  <path
     style="fill:#0000aa"
     d="m 484.91992,1010.252 -481.3535138,277.9082 0,555.8203 481.3535138,277.9023 481.35547,-277.9023 0,-555.8203 -481.35547,-277.9082 z m 0,247.0312 267.41992,154.3926 0,308.789 -267.41992,154.3946 -267.41797,-154.3946 0,-308.789 267.41797,-154.3926 z"
     transform="matrix(0.56091666,0,0,0.5609167,-2,-3.7499889)"
     id="o"/>
  <polygon
     style="fill:#0000aa"
     points="840,1047.89 690,961.287 690,926.647 570,857.365 570,1030.57 840,1186.45 1110,1030.57 1110,961.287 750,753.441 840,701.479 990,788.083 990,822.723 1110,892.005 1110,718.801 840,562.915 570,718.801 570,788.083 930,995.929 "
     id="s" />
</svg>
